<svg width="255" height="199" viewBox="0 0 255 199" fill="none" xmlns="http://www.w3.org/2000/svg">
<g opacity="0.8">
<path fill-rule="evenodd" clip-rule="evenodd" d="M6 38.4841V145.051H135.306V38.4841H6ZM4 32.4841C1.79086 32.4841 0 34.275 0 36.4841V147.051C0 149.26 1.79086 151.051 4 151.051H137.306C139.515 151.051 141.306 149.26 141.306 147.051V36.4841C141.306 34.275 139.515 32.4841 137.306 32.4841H4Z" fill="CurrentColor"/>
<path fill-rule="evenodd" clip-rule="evenodd" d="M119.694 85.5859V192.153H249V85.5859H119.694ZM117.694 79.5859C115.485 79.5859 113.694 81.3768 113.694 83.5859V194.153C113.694 196.362 115.485 198.153 117.694 198.153H251C253.209 198.153 255 196.362 255 194.153V83.5859C255 81.3768 253.209 79.5859 251 79.5859H117.694Z" fill="CurrentColor"/>
<path fill-rule="evenodd" clip-rule="evenodd" d="M40.4841 8V110.567H165.79V8H40.4841ZM36.4841 0C34.2749 0 32.4841 1.79086 32.4841 4V114.567C32.4841 116.776 34.2749 118.567 36.4841 118.567H169.79C171.999 118.567 173.79 116.776 173.79 114.567V4C173.79 1.79086 171.999 0 169.79 0H36.4841Z" fill="CurrentColor"/>
</g>
</svg>
